<svg width="1440" height="1024" viewBox="0 0 1440 1024" fill="none" xmlns="http://www.w3.org/2000/svg">
<path d="M1440 1024H0V0H1440V1024ZM805.33 470.85C795.245 471.45 785.564 471.796 775.954 472.809C769.414 473.497 762.972 475.118 756.486 476.322C756.462 476.925 756.437 477.528 756.413 478.131C761.143 480.872 765.722 483.922 770.629 486.297C786.77 494.111 795.509 507.8 800.259 524.227C803.519 535.501 802.598 547.35 800.752 558.71C797.153 580.854 789.696 601.954 778.82 621.545C772.374 633.157 765.084 644.581 756.459 654.616C749.063 663.222 739.404 669.953 730.398 677.073C726.166 680.419 721.115 682.73 716.334 685.57C716.877 686.291 717.096 686.916 717.466 687.023C729.641 690.568 742.014 690.951 754.5 689.188C764.889 687.722 774.127 683.477 783.036 678.026C795.385 670.472 804.588 659.87 810.163 647.028C815.269 635.268 817.887 622.41 821.403 609.98C825.046 597.102 829.617 585.064 839.966 575.521C851.338 565.036 863.557 562.363 877.737 567.868C880.638 568.994 882.275 568.735 882.425 565.34C882.785 557.179 883.172 549.019 883.421 540.854C883.706 531.498 880.291 522.88 876.057 515.049C868.013 500.173 856.249 488.619 840.643 481.447C835.612 479.136 830.62 476.563 825.345 475.011C818.965 473.134 812.304 472.214 805.33 470.85ZM606.155 470.14C604.862 470.541 603.345 470.654 602.34 471.43C601.41 472.146 601.028 473.574 600.825 474.71C600.828 474.713 600.831 474.717 600.834 474.72C600.469 474.709 600.445 474.666 600.443 474.661C600.25 474.938 600.057 475.214 599.656 475.598C599.449 475.705 599.436 475.644 599.436 475.644C599.244 475.925 599.053 476.206 598.653 476.593C598.449 476.697 598.428 476.636 598.428 476.634C598.24 476.916 598.052 477.198 597.657 477.586C597.45 477.691 597.411 477.629 597.411 477.629C597.228 477.916 597.045 478.204 596.655 478.591C596.456 478.686 596.394 478.637 596.39 478.634C595.951 479.618 595.513 480.603 594.743 481.644C594.422 481.697 594.412 481.625 594.412 481.62C594.257 481.864 594.102 482.107 593.81 482.392C594.1 482.1 594.217 481.87 594.148 481.684C593.727 482.041 593.557 482.338 593.618 482.551C593.416 482.609 593.361 482.595 593.36 482.595C592.918 483.266 592.476 483.938 591.726 484.661C591.423 484.712 591.389 484.629 591.388 484.626C590.371 486.625 589.353 488.623 587.923 490.88C587.518 491.132 587.429 491.525 587.426 491.541C587.25 491.845 587.074 492.15 586.642 492.568C586.395 492.678 586.374 492.655 586.373 492.652C585.289 495.307 584.204 497.961 582.775 500.66C582.431 500.705 582.407 500.633 582.407 500.633C581.984 502.277 581.562 503.922 580.789 505.637C580.439 505.707 580.414 505.643 580.414 505.643C578.739 513.92 577.064 522.197 574.953 531.014C574.836 534.991 575.315 538.424 575.444 541.869C575.763 550.342 578.729 558.442 583.47 564.73C590.221 573.685 598.991 581.159 607.155 588.998C619.449 600.803 630.434 612.996 629.6 631.841C629.103 643.055 623.862 651.109 615.419 657.649C612.472 659.933 609.391 662.044 605.794 664.652C608.032 666.437 609.751 667.856 611.519 669.21C633.825 686.289 658.342 691.566 685.309 682.596C699.32 677.935 709.005 668.427 715.843 655.308C721.329 644.781 721.189 633.83 720.218 622.746C719.858 618.643 718.237 614.284 716.026 610.774C706.724 596.004 692.311 587.223 677.169 579.795C663.734 573.204 649.92 567.23 638.684 557.175C631.38 550.639 625.107 542.949 618.373 535.776C618.229 535.63 618.087 535.483 617.932 535.259C618.088 535.425 618.234 535.502 618.387 535.48C618.126 534.99 617.854 534.746 617.623 534.729C617.598 534.678 617.571 534.625 617.545 534.569C617.478 534.139 617.416 533.827 617.416 533.827C617.242 533.652 617.067 533.477 616.844 533.162C617.049 533.423 617.239 533.544 617.444 533.513C617.153 532.952 616.833 532.703 616.565 532.735C616.524 532.667 616.48 532.595 616.435 532.517C615.968 531.609 615.68 531.204 615.392 530.8C615.245 530.649 615.1 530.497 614.939 530.263C615.1 530.437 615.252 530.517 615.412 530.495C615.148 529.987 614.867 529.736 614.626 529.72C614.598 529.664 614.568 529.605 614.539 529.543C614.462 529.088 614.355 528.75 614.355 528.75C614.04 528.614 613.8 528.395 613.549 527.894C613.465 527.699 613.528 527.677 613.532 527.676C613.387 527.576 613.242 527.476 613.081 527.317C613.224 527.413 613.346 527.447 613.445 527.419C613.128 527.042 612.87 526.844 612.678 526.819C612.634 526.754 612.588 526.684 612.541 526.607C612.421 526.142 612.319 525.721 612.317 525.713C612.04 525.218 611.763 524.723 611.471 523.96C611.457 523.699 611.525 523.679 611.528 523.678C611.244 523.489 610.958 523.299 610.571 522.903C610.471 522.7 610.538 522.684 610.54 522.684C609.844 520.931 609.148 519.179 608.462 517.069C608.472 516.712 608.536 516.654 608.536 516.654C607.99 516.188 607.163 515.795 606.774 515.288L606.692 515.169C607.034 515.729 607.943 516.101 608.503 516.242C607.975 513.101 607.628 510.336 606.961 507.65C604.156 496.367 604.178 485.055 606.295 473.678C606.505 472.546 606.214 471.321 606.155 470.14ZM865.63 584.877C855.332 585.071 846.892 590.969 840.4 598.51C831.165 609.239 830.428 621.943 834.446 635.544C837.634 645.342 844.766 650.976 852.986 655.545C860.9 659.944 870.027 660.427 877.895 658.161C894.132 653.484 906.163 640.105 905.497 620.822C904.702 597.785 886.406 584.485 865.63 584.877ZM594.721 593.286C580.896 582.071 560.349 582.469 548.119 594.472C546.898 595.319 545.828 595.817 545.079 596.617C536.282 606.019 533.314 617.65 535.9 629.642C537.405 636.617 541.687 643.882 546.76 648.989C554.327 656.608 564.467 659.081 575.648 658.942C588.659 658.781 604.27 646.078 607.269 633.008C610.823 617.513 607.927 604 594.721 593.286ZM580.074 505.804C576.026 513.786 575.018 522.162 575.023 530.572C577.064 522.197 578.74 513.92 580.074 505.804ZM613.561 527.859C613.801 528.396 614.04 528.614 614.352 528.479C614.06 528.014 613.773 527.819 613.561 527.859ZM611.492 523.931C611.762 524.723 612.04 525.218 612.377 525.4C612.124 524.603 611.812 524.118 611.492 523.931ZM610.575 522.868C610.959 523.3 611.244 523.489 611.439 523.429C611.059 522.995 610.768 522.81 610.575 522.868ZM608.48 517.031C609.148 519.179 609.844 520.932 610.512 522.301C609.825 520.157 609.167 518.396 608.48 517.031ZM672.447 391.452C672.157 386.551 670.082 385.121 665.878 387.931C658.742 392.7 651.482 397.493 645.197 403.278C634.049 413.541 626.581 426.101 623.053 441.175C619.822 454.978 619.661 468.088 625.388 481.368C632.932 498.86 655.288 509.829 673.14 507.019C686.826 504.863 698.045 498.422 708.525 490.13C722.582 479.009 736.338 467.768 753.019 460.234C768.942 453.043 785.332 450.274 802.194 451.847C812.425 452.801 822.353 457.006 832.417 459.751C833.834 460.046 835.299 460.212 836.685 460.592L837.003 460.684C835.527 460.241 833.966 460.106 832.6 460.044C837.688 463.104 842.593 465.871 847.499 468.638C847.837 468.222 848.176 467.806 848.514 467.39C847.173 464.405 845.832 461.42 844.457 458.853C844.295 460.627 844.167 461.985 843.975 464.024C844.167 461.985 844.295 460.627 844.446 458.699C844.469 458.128 844.409 457.825 844.409 457.825C842.736 457.848 841.996 457.266 841.679 456.322C842 457.174 842.741 457.66 844.409 457.459C843.441 455.534 842.473 453.972 841.481 452.835C841.484 452.714 841.488 452.592 841.489 452.469C838.499 447.276 835.983 442.362 832.312 438.563C825.987 432.016 819.38 425.571 812.085 420.174C803.786 414.034 794.076 411.177 783.705 409.186C775.84 407.675 768.657 408.762 761.66 410.435C753.123 412.475 745.157 416.827 736.851 419.93C726.347 423.853 715.629 426.354 704.227 424.758C687.352 422.395 673.474 408.759 672.447 391.452ZM582.108 500.824C581.333 502.568 580.856 504.121 580.759 505.62C581.562 503.922 581.984 502.278 582.108 500.824ZM586.021 492.742C584.569 495.443 583.467 498.054 582.742 500.641C584.203 497.961 585.288 495.307 586.021 492.742ZM587.172 491.642C586.746 492.047 586.573 492.352 586.649 492.556C587.074 492.15 587.25 491.846 587.172 491.642ZM591.067 484.753C589.713 486.836 588.678 488.792 587.99 490.686C589.353 488.624 590.371 486.625 591.067 484.753ZM593.013 482.609C592.228 483.298 591.791 483.972 591.694 484.628C592.476 483.938 592.919 483.266 593.013 482.609ZM596.096 478.77C595.32 479.818 594.837 480.731 594.714 481.616C595.512 480.603 595.95 479.619 596.096 478.77ZM597.146 477.691C596.71 478.058 596.54 478.363 596.616 478.58C597.045 478.204 597.228 477.917 597.146 477.691ZM598.177 476.716C597.744 477.088 597.562 477.378 597.622 477.574C598.051 477.198 598.24 476.917 598.177 476.716ZM599.182 475.725C598.745 476.098 598.562 476.391 598.62 476.586C599.052 476.207 599.244 475.925 599.182 475.725ZM600.196 474.747C599.762 475.119 599.575 475.405 599.626 475.591C600.057 475.214 600.25 474.937 600.196 474.747ZM720.434 333.015C711.271 332.728 702.384 336.578 695.362 342.825C687.475 349.843 682.741 358.917 682.577 369.629C682.368 383.323 687.923 394.465 699.264 402.984C706.234 407.524 713.948 409.645 721.52 409.386C733.183 408.986 743.315 404.151 750.551 394.312C759.6 382.007 761.671 363.332 750.881 349.337C742.937 339.035 732.756 333.4 720.434 333.015Z" fill="#F2F0EB"/>
</svg>
